<svg width="25" height="24" viewBox="0 0 25 24" fill="none" xmlns="http://www.w3.org/2000/svg">
<path d="M15.7083 16.5833H21.2083" stroke="white" stroke-width="1.5" stroke-linecap="round" stroke-linejoin="round"/>
<path d="M18.9167 18.875L21.2084 16.5833L18.9169 14.2917" stroke="white" stroke-width="1.5" stroke-linecap="round" stroke-linejoin="round"/>
<path d="M21.2084 12.9167V5.58334C21.2084 4.82395 20.5928 4.20834 19.8334 4.20834H5.16675C4.40736 4.20834 3.79175 4.82395 3.79175 5.58334V18.4167C3.79175 19.1761 4.40736 19.7917 5.16675 19.7917H14.5491" stroke="white" stroke-width="1.5" stroke-linecap="round" stroke-linejoin="round"/>
<path d="M8.5 13.6667H9.7C9.7 14.2667 10.522 14.7778 11.5 14.7778C12.478 14.7778 13.3 14.2667 13.3 13.6667C13.3 13.0556 12.676 12.8333 11.356 12.5389C10.084 12.2444 8.5 11.8778 8.5 10.3333C8.5 9.33889 9.382 8.49444 10.6 8.21111V7H12.4V8.21111C13.618 8.49444 14.5 9.33889 14.5 10.3333H13.3C13.3 9.73333 12.478 9.22222 11.5 9.22222C10.522 9.22222 9.7 9.73333 9.7 10.3333C9.7 10.9444 10.324 11.1667 11.644 11.4611C12.916 11.7556 14.5 12.1222 14.5 13.6667C14.5 14.6611 13.618 15.5056 12.4 15.7889V17H10.6V15.7889C9.382 15.5056 8.5 14.6611 8.5 13.6667Z" fill="white"/>
</svg>
