<svg width="24" height="24" viewBox="0 0 24 24" fill="none" xmlns="http://www.w3.org/2000/svg">
<path d="M19.0243 16.2279C18.4612 15.6643 17.8031 15.2043 17.0804 14.8689C18.0996 14.0432 18.7498 12.7832 18.7498 11.3703C18.7498 8.87736 16.6709 6.83217 14.178 6.87041C11.7233 6.90866 9.7456 8.90885 9.7456 11.3703C9.7456 12.7832 10.3981 14.0432 11.4151 14.8689C10.6922 15.204 10.0341 15.6641 9.47111 16.2279C8.24265 17.4586 7.54517 19.0831 7.50017 20.8155C7.49957 20.8395 7.50378 20.8634 7.51256 20.8858C7.52133 20.9081 7.5345 20.9285 7.55127 20.9457C7.56804 20.9629 7.58809 20.9766 7.61023 20.9859C7.63236 20.9952 7.65614 21 7.68016 21H8.94013C9.03687 21 9.11787 20.9235 9.12012 20.8268C9.16287 19.5218 9.6916 18.3001 10.6208 17.3731C11.0963 16.8951 11.6619 16.5161 12.2849 16.2581C12.9078 16.0001 13.5757 15.8683 14.25 15.8702C15.6202 15.8702 16.9094 16.4034 17.8791 17.3731C18.8061 18.3001 19.3348 19.5218 19.3798 20.8268C19.3821 20.9235 19.4631 21 19.5598 21H20.8198C20.8438 21 20.8676 20.9952 20.8897 20.9859C20.9118 20.9766 20.9319 20.9629 20.9487 20.9457C20.9654 20.9285 20.9786 20.9081 20.9874 20.8858C20.9962 20.8634 21.0004 20.8395 20.9998 20.8155C20.9548 19.0831 20.2573 17.4586 19.0243 16.2279ZM14.25 14.2502C13.4805 14.2502 12.756 13.951 12.2138 13.4065C11.9417 13.1365 11.7267 12.8145 11.5817 12.4596C11.4368 12.1047 11.3648 11.7243 11.3701 11.341C11.3768 10.6031 11.6715 9.88983 12.1868 9.36109C12.7268 8.80761 13.449 8.49937 14.2207 8.49037C14.9834 8.48362 15.7237 8.78061 16.2682 9.31384C16.8261 9.86058 17.1321 10.5918 17.1321 11.3703C17.1321 12.1398 16.8329 12.862 16.2884 13.4065C16.0213 13.6749 15.7036 13.8877 15.3537 14.0325C15.0038 14.1773 14.6287 14.2513 14.25 14.2502ZM8.61389 11.9643C8.59364 11.7685 8.58239 11.5705 8.58239 11.3703C8.58239 11.0125 8.61614 10.6638 8.67913 10.3241C8.69488 10.2431 8.65213 10.1598 8.57789 10.1261C8.2719 9.98882 7.99065 9.79983 7.74766 9.56134C7.46133 9.28371 7.23602 8.94945 7.0861 8.57988C6.93618 8.21031 6.86494 7.81354 6.87694 7.4149C6.89719 6.69267 7.18743 6.00644 7.69366 5.48896C8.2494 4.91972 8.99637 4.60923 9.7906 4.61823C10.5083 4.62498 11.2013 4.90172 11.7255 5.39221C11.9033 5.5587 12.0563 5.7432 12.1845 5.94119C12.2295 6.01094 12.3173 6.04019 12.3938 6.01319C12.7898 5.87594 13.2083 5.7792 13.638 5.7342C13.764 5.7207 13.836 5.5857 13.7797 5.47321C13.0485 4.0265 11.5545 3.02753 9.8266 3.00053C7.33142 2.96228 5.25248 5.00747 5.25248 7.49815C5.25248 8.9111 5.90271 10.1711 6.92193 10.9968C6.20646 11.3275 5.54723 11.7843 4.97574 12.3558C3.74278 13.5865 3.0453 15.2109 3.0003 16.9456C2.9997 16.9696 3.00391 16.9935 3.01269 17.0159C3.02146 17.0382 3.03463 17.0586 3.0514 17.0758C3.06818 17.093 3.08822 17.1067 3.11036 17.116C3.1325 17.1253 3.15627 17.1301 3.1803 17.1301H4.44251C4.53926 17.1301 4.62025 17.0536 4.6225 16.9569C4.66525 15.6519 5.19399 14.4302 6.12321 13.5032C6.78469 12.8417 7.59467 12.3828 8.47889 12.16C8.56664 12.1375 8.62513 12.0543 8.61389 11.9643Z" fill="white"/>
</svg>
